<svg version="1.2" xmlns="http://www.w3.org/2000/svg" viewBox="0 0 256 256" width="256" height="256"><style>.a{fill:none;stroke:#f9e21c;stroke-width:14}.b{fill:none;stroke:#f9e21c;stroke-width:12}.c{fill:#576d9b}</style><path class="a" d="m15 43c0-11 9-20 20-20h185c11 0 20 9 20 20v170.4c0 11-9 20-20 20h-185c-11 0-20-9-20-20z"/><path class="b" d="m15 82.4v-5.6l220.1-0.8v5.6zm55.3-58.3h5.7l-0.4 205.5h-5.6z"/><path class="c" d="m98.2 201v-48.6h-8.3v-13h8.3v-11.4q0-8.9 3.2-14 3.3-5.1 8-7 4.7-2 9.7-2 5.2 0 8.5 0.9 3.3 0.9 4.2 1.8v13.5q-1.3-1.6-4-2.6-2.7-0.9-4.9-0.9-9.8 0-9.8 9.9v11.8h15v13h-15v48.6zm42.5 0v-61.6h16.1v61.6zm-0.7-71.6v-16.5h17.4v16.5zm67.9 8.5q9.2 0 13.9 5.9 4.7 5.8 4.7 16.5v40.7h-15.9v-39.4q0-5.2-2.2-8.3-2.2-3.2-6.6-3.2-2.9 0-5.4 1.5-2.5 1.5-4 4.2-1.5 2.6-1.5 5.8v39.4h-15.8v-61.6h14.4l0.3 8.1q6.3-9.6 18.1-9.6z"/></svg>